<svg
  width="16"
  height="9"
  viewBox="0 0 16 9"
  xmlns="http://www.w3.org/2000/svg" xmlns:svg="http://www.w3.org/2000/svg"
>
  <defs>
    <linearGradient id="noted-logo-gradient" x1="56.672%" x2="43.35%" y1="50%" y2="50%">
      <stop offset="0%" stop-color="#3C3C3C"/>
      <stop offset="100%" stop-color="#141414"/>
    </linearGradient>
  </defs>

  <path
    id="noted-logo-side"
    fill="url(#noted-logo-gradient)"
    d="M7,0.5 L9,0.5 L14,3 L15.5,4 C15.498057,4.00094604 15.498057,4.00094604 15.5,4 C15.5,4.9972229 15.4995152,5.25343945 14.5,5.75 C13.5004848,6.24656055 9.61068204,8.1979966 9,8.5 C7.99588013,9.01904297 8,9 7,8.5 C6.38605142,8.19570959 2.49667358,6.25123048 1.5,5.75 C0.503326416,5.24876952 0.5,5.00616455 0.5,4 C0.502634684,3.99242147 0.502634684,3.99242147 0.5,4 L2,3 L7,0.5 Z"
  />

  <path
    id="noted-logo-highlight"
    fill="#969696"
    d="M15.5,3.99861145 C15.4974162,4.08669535 15.4961161,4.12883251 15.4960999,4.12502293 C15.5,4.37214163 15.00629,4.62176786 14,5.12650636 C11.9957275,6.13181642 9.55721393,7.35085594 9.00408936,7.62446168 C8.00320435,8.13767579 8.00265503,8.14750245 7,7.62650636 C6.66528931,7.4653543 3.99777222,6.12177613 2,5.12650636 C1.00146296,4.62904537 0.502024052,4.37738816 0.501677147,4.12550619 C0.502552864,4.12828152 0.5025177,4.08644613 0.501571655,4 L15.5,3.99861145 Z"
  />

  <path
    id="noted-logo-top"
    fill="#5A5A5A"
    d="M9,0.504278564 C9.54831111,0.776088135 12.0145264,1.99041748 14,3 C15.9854736,4.00958252 16.0042725,3.99468994 14,5 C11.9957275,6.00531006 9.55721393,7.22434958 9.00408936,7.49795532 C8.00320435,8.01116943 8.00265503,8.02099609 7,7.5 C6.66528931,7.33884794 3.99777222,5.99526978 2,5 C0.0022277832,4.00473022 0.00224412707,3.99336308 2,2.99560547 C4.99400954,1.50027972 6.66635285,0.666823575 7.00463867,0.497680664 C8,-0.00463867188 8,-4.16333634e-17 9,0.504278564 Z"
  />

  <path
    id="noted-logo-letter"
    fill="#FFF"
    d="M5.71101585,2.42037378 C6.63560232,1.96013997 8.46026357,1.51285654 9.83333333,2.19090118 L13.5,4.02423451 L11.6666667,4.94090118 L9.375,3.79506784 C8.45833333,3.33673451 7.69444444,3.26034562 7.08333333,3.56590118 C6.47222222,3.87145673 6.625,4.25340118 7.54166667,4.71173451 L9.83333333,5.85756784 L8,6.77423451 L2.5,4.02423451 L4.33333333,3.10756784 L4.79166667,3.33673451 C4.805169,3.034051 5.11161873,2.72859742 5.71101585,2.42037378 Z"
  />
</svg>
